<svg xmlns="http://www.w3.org/2000/svg" viewBox="0 0 350 358" width="48" height="48" preserveAspectRatio="xMidYMid slice" style="width: 100%; height: 100%; transform: translate3d(0px, 0px, 0px);"><defs><clipPath id="__lottie_element_2"><rect width="350" height="358" x="0" y="0"></rect></clipPath></defs><g clip-path="url(#__lottie_element_2)"><g style="display: block;" transform="matrix(6.85365104675293,0,0,6.85365104675293,31.20482635498047,5.53680419921875)" opacity="1"><g opacity="1" transform="matrix(1,0,0,1,15.25,42.5)"><path fill="rgb(71,71,71)" fill-opacity="1" d=" M0,-1.75 C0,-1.75 -0.14399999380111694,-1.74399995803833 -0.14399999380111694,-1.74399995803833 C-1.0420000553131104,-1.6710000038146973 -1.75,-0.9179999828338623 -1.75,0 C-1.75,0.9660000205039978 -0.9660000205039978,1.75 0,1.75 C0.9660000205039978,1.75 1.75,0.9660000205039978 1.75,0 C1.75,-0.9179999828338623 1.0420000553131104,-1.6710000038146973 0.14399999380111694,-1.74399995803833 C0.14399999380111694,-1.74399995803833 0,-1.75 0,-1.75z"></path></g></g><g style="display: block;" transform="matrix(6.85365104675293,0,0,6.85365104675293,15.684066772460938,5.53680419921875)" opacity="1"><g opacity="1" transform="matrix(1,0,0,1,30.25,42.5)"><path fill="rgb(71,71,71)" fill-opacity="1" d=" M0,-1.75 C0,-1.75 -0.14399999380111694,-1.74399995803833 -0.14399999380111694,-1.74399995803833 C-1.0429999828338623,-1.6710000038146973 -1.75,-0.9179999828338623 -1.75,0 C-1.75,0.9660000205039978 -0.9660000205039978,1.75 0,1.75 C0.9660000205039978,1.75 1.75,0.9660000205039978 1.75,0 C1.75,-0.9179999828338623 1.0429999828338623,-1.6710000038146973 0.14399999380111694,-1.74399995803833 C0.14399999380111694,-1.74399995803833 0,-1.75 0,-1.75z"></path></g></g><g style="display: block;" transform="matrix(5.762979507446289,0,0,3.5654044151306152,48.2132568359375,116.79728698730469)" opacity="1"><g opacity="1" transform="matrix(1.0295000076293945,0,0,1,21.82900047302246,21.476999282836914)"><path fill="rgb(255,95,0)" fill-opacity="1" d=" M-13.78600025177002,-6.4770002365112305 C-13.78600025177002,-6.4770002365112305 -13.692999839782715,-6.4710001945495605 -13.692999839782715,-6.4710001945495605 C-13.692999839782715,-6.4710001945495605 13.770999908447266,-6.4710001945495605 13.770999908447266,-6.4710001945495605 C13.805999755859375,-6.4710001945495605 13.83899974822998,-6.4679999351501465 13.868000030517578,-6.460000038146973 C14.059000015258789,-6.410999774932861 14.182999610900879,-6.230999946594238 14.170999526977539,-6.039999961853027 C14.170999526977539,-6.039999961853027 14.15999984741211,-5.9670000076293945 14.15999984741211,-5.9670000076293945 C14.15999984741211,-5.9670000076293945 11.847999572753906,3.4489998817443848 11.847999572753906,3.4489998817443848 C11.420000076293945,5.195000171661377 9.916000366210938,6.439000129699707 8.164999961853027,6.519999980926514 C8.164999961853027,6.519999980926514 7.984000205993652,6.5229997634887695 7.984000205993652,6.5229997634887695 C7.984000205993652,6.5229997634887695 -11.253000259399414,6.5229997634887695 -11.253000259399414,6.5229997634887695 C-11.692999839782715,6.5229997634887695 -14.182000160217285,-6.52400016784668 -13.78600025177002,-6.4770002365112305z"></path></g></g><g transform="matrix(5.818960189819336,0,0,5.818960189819336,46.98388671875,53.891815185546875)" opacity="1" style="display: block;"><g opacity="1" transform="matrix(1,0,0,1,25.016000747680664,19.246000289916992)"><path stroke-linecap="round" stroke-linejoin="round" fill-opacity="0" stroke="rgb(72,72,72)" stroke-opacity="1" stroke-width="2.5" d=" M-18.302000045776367,-8.055999755859375 C-18.238000869750977,-8.034000396728516 -18.170000076293945,-8.019000053405762 -18.10099983215332,-8.01099967956543 C-18.10099983215332,-8.01099967956543 -17.983999252319336,-8.003999710083008 -17.983999252319336,-8.003999710083008 C-17.983999252319336,-8.003999710083008 16.483999252319336,-8.003999710083008 16.483999252319336,-8.003999710083008 C16.527999877929688,-8.003999710083008 16.56800079345703,-8 16.604000091552734,-7.989999771118164 C16.8439998626709,-7.929999828338623 16.999000549316406,-7.709000110626221 16.983999252319336,-7.4720001220703125 C16.983999252319336,-7.4720001220703125 16.969999313354492,-7.382999897003174 16.969999313354492,-7.382999897003174 C16.969999313354492,-7.382999897003174 14.069999694824219,4.2170000076293945 14.069999694824219,4.2170000076293945 C13.531999588012695,6.368000030517578 11.645000457763672,7.89900016784668 9.447999954223633,7.999000072479248 C9.447999954223633,7.999000072479248 9.220000267028809,8.003999710083008 9.220000267028809,8.003999710083008 C9.220000267028809,8.003999710083008 -14.92199993133545,8.003999710083008 -14.92199993133545,8.003999710083008 C-14.9399995803833,8.003999710083008 -14.958000183105469,8.003999710083008 -14.975000381469727,8.005000114440918"></path></g></g><g transform="matrix(5.818960189819336,0,0,5.818960189819336,46.98388671875,53.891815185546875)" opacity="1" style="display: block;"><g opacity="1" transform="matrix(1,0,0,1,17.5,19.253000259399414)"><path stroke-linecap="round" stroke-linejoin="round" fill-opacity="0" stroke="rgb(72,72,72)" stroke-opacity="1" stroke-width="2" d=" M-16.761999130249023,-17.0310001373291 C-16.71500015258789,-17.01799964904785 -16.666000366210938,-17.009000778198242 -16.617000579833984,-17.003000259399414 C-16.617000579833984,-17.003000259399414 -16.5,-16.996999740600586 -16.5,-16.996999740600586 C-16.5,-16.996999740600586 -14.531999588012695,-16.996999740600586 -14.531999588012695,-16.996999740600586 C-13.611000061035156,-16.996999740600586 -12.817000389099121,-16.3700008392334 -12.593000411987305,-15.491000175476074 C-12.593000411987305,-15.491000175476074 -12.5600004196167,-15.333000183105469 -12.5600004196167,-15.333000183105469 C-12.5600004196167,-15.333000183105469 -7.285999774932861,15.666000366210938 -7.285999774932861,15.666000366210938 C-6.9720001220703125,17.523000717163086 -5.4070000648498535,18.89900016784668 -3.5429999828338623,18.992000579833984 C-3.5429999828338623,18.992000579833984 -3.3420000076293945,18.996999740600586 -3.3420000076293945,18.996999740600586 C-3.3420000076293945,18.996999740600586 16.5,18.996999740600586 16.5,18.996999740600586 C16.597999572753906,18.996999740600586 16.691999435424805,18.982999801635742 16.7810001373291,18.957000732421875"></path></g></g></g></svg>